<svg width="28" height="28" viewBox="0 0 28 28" fill="none" xmlns="http://www.w3.org/2000/svg">
<path d="M6 20.6667C6 18 11.3333 16.5333 14 16.5333C16.6667 16.5333 22 18 22 20.6667V21.5C22 21.7761 21.7761 22 21.5 22H6.5C6.22386 22 6 21.7761 6 21.5V20.6667ZM18 10C18 11.0609 17.5786 12.0783 16.8284 12.8284C16.0783 13.5786 15.0609 14 14 14C12.9391 14 11.9217 13.5786 11.1716 12.8284C10.4214 12.0783 10 11.0609 10 10C10 8.93913 10.4214 7.92172 11.1716 7.17157C11.9217 6.42143 12.9391 6 14 6C15.0609 6 16.0783 6.42143 16.8284 7.17157C17.5786 7.92172 18 8.93913 18 10ZM2 4.66667V23.3333C2 24.0406 2.28095 24.7189 2.78105 25.219C3.28115 25.719 3.95942 26 4.66667 26H23.3333C24.0406 26 24.7189 25.719 25.219 25.219C25.719 24.7189 26 24.0406 26 23.3333V4.66667C26 3.95942 25.719 3.28115 25.219 2.78105C24.7189 2.28095 24.0406 2 23.3333 2H4.66667C3.18667 2 2 3.2 2 4.66667Z" fill="#7B87C8"/>
</svg>
