<svg width="14" height="14" viewBox="0 0 14 14" fill="none" xmlns="http://www.w3.org/2000/svg">
<path fill-rule="evenodd" clip-rule="evenodd" d="M10.956 8.4C10.6789 9.18294 10.1752 9.85809 9.5256 10.3498L9.52665 10.3491L9.52872 10.3509C9.52864 10.351 9.52856 10.351 9.52848 10.3511L9.52664 10.3495C8.85553 10.8579 8.02868 11.1709 7.12807 11.1981C7.10858 11.1987 7.08906 11.1991 7.0695 11.1994C7.04638 11.1998 7.02321 11.2 7 11.2C6.94564 11.2 6.89152 11.199 6.83766 11.1969C6.80037 11.1955 6.7632 11.1936 6.72617 11.1912C5.02551 11.0815 3.60391 9.95719 3.05094 8.41891L3.04688 8.42204C2.88708 7.97793 2.8 7.49913 2.8 7C2.8 6.44372 2.90817 5.91268 3.10462 5.42678L3.10697 5.4285C3.72927 3.8878 5.23637 2.8 7.00002 2.8C7.13385 2.8 7.26616 2.80631 7.3967 2.81864C8.31053 2.90497 9.13741 3.28637 9.78635 3.86365L9.78636 3.86364L9.78637 3.86365L11.7663 1.8837C10.5161 0.71855 8.84382 0 7.00002 0H7C3.13425 0 0 3.13425 0 7C0 10.7751 2.98905 13.8527 6.72943 13.9949C6.76028 13.996 6.79119 13.997 6.82214 13.9978C6.88124 13.9993 6.94053 14 6.99999 14C7.04383 14 7.08758 13.9996 7.13122 13.9988C8.91156 13.9661 10.5295 13.2685 11.7474 12.144C12.1135 11.8429 14 10.0649 14 7C14 6.53065 13.9517 6.0725 13.8638 5.62905H13.3V5.6L7 5.59999V5.6V8.4H10.956Z" fill="white"/>
</svg>
