<svg width="20" height="20" viewBox="0 0 20 20" fill="none" xmlns="http://www.w3.org/2000/svg">
<path d="M8.2 3C9.57913 3 10.9018 3.54786 11.877 4.52304C12.8521 5.49823 13.4 6.82087 13.4 8.2C13.4 9.488 12.928 10.672 12.152 11.584L12.368 11.8H13L17 15.8L15.8 17L11.8 13V12.368L11.584 12.152C10.672 12.928 9.488 13.4 8.2 13.4C6.82087 13.4 5.49823 12.8521 4.52304 11.877C3.54786 10.9018 3 9.57913 3 8.2C3 6.82087 3.54786 5.49823 4.52304 4.52304C5.49823 3.54786 6.82087 3 8.2 3ZM8.2 4.6C6.2 4.6 4.6 6.2 4.6 8.2C4.6 10.2 6.2 11.8 8.2 11.8C10.2 11.8 11.8 10.2 11.8 8.2C11.8 6.2 10.2 4.6 8.2 4.6Z" fill="#505FB6"/>
</svg>
