<svg width="0" height="0">

  <symbol xmlns="http://www.w3.org/2000/svg" viewBox="0 0 20 20" id="main">
    <path d="M7.9 17C8.17614 17 8.4 16.7761 8.4 16.5V12.5588C8.4 12.2827 8.62386 12.0588 8.9 12.0588H11.1C11.3761 12.0588 11.6 12.2827 11.6 12.5588V16.5C11.6 16.7761 11.8239 17 12.1 17H15.1C15.3761 17 15.6 16.7761 15.6 16.5V10.4118H16.7246C17.1793 10.4118 17.398 9.85401 17.0644 9.54498L10.3398 3.31483C10.1481 3.1372 9.85191 3.1372 9.66019 3.31483L2.93557 9.54498C2.60202 9.85401 2.82068 10.4118 3.27538 10.4118H4.4V16.5C4.4 16.7761 4.62386 17 4.9 17H7.9Z"></path>
  </symbol>

  <symbol xmlns="http://www.w3.org/2000/svg" viewBox="0 0 20 20" id="courses">
    <path d="M10.75 7.7C10.75 7.81046 10.8395 7.9 10.95 7.9H14.3676C14.5491 7.9 14.6368 7.67765 14.5041 7.55379L11.0865 4.36403C10.9586 4.24471 10.75 4.33537 10.75 4.51024V7.7ZM5.5 3H11.3029C11.4296 3 11.5515 3.04806 11.6441 3.13447L15.8412 7.05175C15.9425 7.14631 16 7.27869 16 7.41728V15.6C16 15.9713 15.842 16.3274 15.5607 16.5899C15.2794 16.8525 14.8978 17 14.5 17H5.5C4.6675 17 4 16.37 4 15.6V4.4C4 3.623 4.6675 3 5.5 3ZM13.437 14.6858C13.5698 14.7766 13.75 14.6816 13.75 14.5208V10.8392C13.75 10.6784 13.5698 10.5834 13.437 10.6742L11.813 11.7858C11.6802 11.8766 11.5 11.7816 11.5 11.6208V10.96C11.5 10.6839 11.2761 10.46 11 10.46H6.75C6.47386 10.46 6.25 10.6839 6.25 10.96V14.4C6.25 14.6761 6.47386 14.9 6.75 14.9H11C11.2761 14.9 11.5 14.6761 11.5 14.4V13.7392C11.5 13.5784 11.6802 13.4834 11.813 13.5742L13.437 14.6858Z"></path>
  </symbol>

  <symbol xmlns="http://www.w3.org/2000/svg" viewBox="0 0 20 20" id="webinars">
    <path d="M4.4 5.8H3V15.6C3 15.9713 3.1475 16.3274 3.41005 16.5899C3.6726 16.8525 4.0287 17 4.4 17H14.2V15.6H4.4V5.8ZM15.6 3H7.2C6.8287 3 6.4726 3.1475 6.21005 3.41005C5.9475 3.6726 5.8 4.0287 5.8 4.4V12.8C5.8 13.1713 5.9475 13.5274 6.21005 13.7899C6.4726 14.0525 6.8287 14.2 7.2 14.2H15.6C15.9713 14.2 16.3274 14.0525 16.5899 13.7899C16.8525 13.5274 17 13.1713 17 12.8V4.4C17 4.0287 16.8525 3.6726 16.5899 3.41005C16.3274 3.1475 15.9713 3 15.6 3ZM10 11.75V5.45L14.2 8.6L10 11.75Z"></path>
  </symbol>

  <symbol xmlns="http://www.w3.org/2000/svg" viewBox="0 0 20 20" id="catalog">
    <path d="M8.16667 3C7.89052 3 7.66667 3.22386 7.66667 3.5V14.1667C7.66667 14.4428 7.89052 14.6667 8.16667 14.6667H9.5C9.77614 14.6667 10 14.4428 10 14.1667V3.5C10 3.22386 9.77614 3 9.5 3H8.16667ZM10.4634 4.40108C10.2058 4.48697 10.0638 4.76286 10.1437 5.02246L12.9606 14.1775C13.0432 14.4458 13.3303 14.5936 13.5966 14.5048L14.981 14.0434C15.2387 13.9575 15.3807 13.6816 15.3008 13.422L12.4838 4.26691C12.4013 3.99863 12.1141 3.85085 11.8478 3.93961L10.4634 4.40108ZM5.05556 4.55556C4.77941 4.55556 4.55556 4.77941 4.55556 5.05556V14.1667C4.55556 14.4428 4.77941 14.6667 5.05556 14.6667H6.38889C6.66503 14.6667 6.88889 14.4428 6.88889 14.1667V5.05556C6.88889 4.77941 6.66503 4.55556 6.38889 4.55556H5.05556ZM3.5 15.4444C3.22386 15.4444 3 15.6683 3 15.9444V16.5C3 16.7761 3.22386 17 3.5 17H16.5C16.7761 17 17 16.7761 17 16.5V15.9444C17 15.6683 16.7761 15.4444 16.5 15.4444H3.5Z"></path>
  </symbol>

  <symbol xmlns="http://www.w3.org/2000/svg" viewBox="0 0 20 20" id="bookmarks">
    <path d="M14.2857 3H5.71429C5.25963 3 4.82359 3.16389 4.5021 3.45561C4.18061 3.74733 4 4.143 4 4.55556V16.0657C4 16.4651 4.44507 16.7033 4.77735 16.4818L9.72265 13.1849C9.8906 13.0729 10.1094 13.0729 10.2773 13.1849L15.2227 16.4818C15.5549 16.7033 16 16.4651 16 16.0657V4.55556C16 3.69222 15.2286 3 14.2857 3Z"></path>
  </symbol>

  <symbol xmlns="http://www.w3.org/2000/svg" viewBox="0 0 20 20" id="profile">
    <path d="M5.33333 13.8889C5.33333 12.3333 8.44444 11.4778 10 11.4778C11.5556 11.4778 14.6667 12.3333 14.6667 13.8889V14.1667C14.6667 14.4428 14.4428 14.6667 14.1667 14.6667H5.83333C5.55719 14.6667 5.33333 14.4428 5.33333 14.1667V13.8889ZM12.3333 7.66667C12.3333 8.28551 12.0875 8.879 11.6499 9.31658C11.2123 9.75417 10.6188 10 10 10C9.38116 10 8.78767 9.75417 8.35008 9.31658C7.9125 8.879 7.66667 8.28551 7.66667 7.66667C7.66667 7.04783 7.9125 6.45434 8.35008 6.01675C8.78767 5.57917 9.38116 5.33333 10 5.33333C10.6188 5.33333 11.2123 5.57917 11.6499 6.01675C12.0875 6.45434 12.3333 7.04783 12.3333 7.66667ZM3 4.55556V15.4444C3 15.857 3.16389 16.2527 3.45561 16.5444C3.74733 16.8361 4.143 17 4.55556 17H15.4444C15.857 17 16.2527 16.8361 16.5444 16.5444C16.8361 16.2527 17 15.857 17 15.4444V4.55556C17 4.143 16.8361 3.74733 16.5444 3.45561C16.2527 3.16389 15.857 3 15.4444 3H4.55556C3.69222 3 3 3.7 3 4.55556Z"></path>
  </symbol>

  <symbol xmlns="http://www.w3.org/2000/svg" viewBox="0 0 20 20" id="exit">
    <path d="M15.4444 3H4.55556C3.69222 3 3 3.69222 3 4.55556V7.66667H4.55556V4.55556H15.4444V15.4444H4.55556V12.3333H3V15.4444C3 15.857 3.16389 16.2527 3.45561 16.5444C3.74733 16.8361 4.143 17 4.55556 17H15.4444C15.857 17 16.2527 16.8361 16.5444 16.5444C16.8361 16.2527 17 15.857 17 15.4444V4.55556C17 3.69222 16.3 3 15.4444 3ZM8.50667 12.7844L9.61111 13.8889L13.5 10L9.61111 6.11111L8.50667 7.20778L10.5211 9.22222H3V10.7778H10.5211L8.50667 12.7844Z"></path>
  </symbol>

  <symbol xmlns="http://www.w3.org/2000/svg" viewBox="0 0 24 24" id="facebook">
    <path fill-rule="evenodd" clip-rule="evenodd" d="M11.9542 23.9999L11.9649 24H11.9612L11.9542 23.9999ZM12.0388 24H12.0351L12.0458 23.9999L12.0388 24ZM11.9175 23.9997L11.9291 23.9998H11.9224L11.9175 23.9997ZM12.0776 23.9998H12.0709L12.0825 23.9997L12.0776 23.9998ZM11.8822 23.9994L11.8899 23.9995L11.8837 23.9994H11.8822ZM12.1163 23.9994L12.1101 23.9995L12.1178 23.9994H12.1163ZM12.155 23.999L12.1523 23.9991L12.1627 23.9989L12.155 23.999ZM11.8372 23.9989L11.8477 23.9991L11.845 23.999L11.8372 23.9989ZM12.1937 23.9985L12.1874 23.9985L12.2003 23.9984L12.1937 23.9985ZM11.7997 23.9984L11.8126 23.9985L11.8063 23.9985L11.7997 23.9984ZM12.2323 23.9978L12.2238 23.9979L12.2357 23.9977L12.2323 23.9978ZM11.7643 23.9977L11.7762 23.9979L11.7677 23.9978L11.7643 23.9977ZM11.7204 23.9968L11.7309 23.997L11.7291 23.997L11.7204 23.9968ZM12.2709 23.997L12.2691 23.997L12.2796 23.9968L12.2709 23.997ZM11.6819 23.9958L11.6963 23.9962L11.6905 23.9961L11.6819 23.9958ZM12.3095 23.9961L12.3037 23.9962L12.3181 23.9958L12.3095 23.9961ZM12.3481 23.995L12.3387 23.9953L12.3535 23.9949L12.3481 23.995ZM11.6465 23.9949L11.6613 23.9953L11.6519 23.995L11.6465 23.9949ZM11.6128 23.9939L11.6233 23.9942L11.6134 23.9939L11.6043 23.9936L11.6128 23.9939ZM12.3866 23.9939L12.3767 23.9942L12.3872 23.9939L12.3957 23.9936L12.3866 23.9939ZM12.4251 23.9926L12.4199 23.9928L12.436 23.9922L12.4251 23.9926ZM11.564 23.9922L11.5801 23.9928L11.5749 23.9926L11.564 23.9922ZM11.5289 23.9909L11.5458 23.9915L11.5364 23.9912L11.5289 23.9909ZM12.4636 23.9912L12.4542 23.9915L12.4711 23.9909L12.4636 23.9912ZM11.4944 23.9895L11.511 23.9902L11.498 23.9897L11.4944 23.9895ZM12.502 23.9897L12.489 23.9902L12.5056 23.9895L12.502 23.9897ZM11.4461 23.9874L11.4639 23.9882L11.4596 23.988L11.4461 23.9874ZM12.5404 23.988L12.5361 23.9882L12.5539 23.9874L12.5404 23.988ZM11.4115 23.9858L11.43 23.9866L11.4212 23.9863L11.4115 23.9858ZM12.5788 23.9863L12.57 23.9866L12.5885 23.9858L12.5788 23.9863ZM11.3774 23.9841L11.396 23.985L11.3829 23.9844L11.3774 23.9841ZM12.6171 23.9844L12.604 23.985L12.6226 23.9841L12.6171 23.9844ZM12.6555 23.9824L12.6385 23.9833L12.6535 23.9825L12.6713 23.9815L12.6555 23.9824ZM11.3465 23.9825L11.3615 23.9833L11.3445 23.9824L11.3287 23.9815L11.3465 23.9825ZM12.6937 23.9802L12.6862 23.9806L12.7052 23.9796L12.6937 23.9802ZM11.2948 23.9796L11.3138 23.9806L11.3063 23.9802L11.2948 23.9796ZM11.2609 23.9775L11.2799 23.9787L11.268 23.978L11.2609 23.9775ZM12.732 23.978L12.7201 23.9787L12.7391 23.9775L12.732 23.978ZM11.2286 23.9755L11.2457 23.9766L11.2298 23.9756L11.2138 23.9746L11.2286 23.9755ZM12.7702 23.9756L12.7543 23.9766L12.7714 23.9755L12.7862 23.9746L12.7702 23.9756ZM12.8084 23.9731L12.8026 23.9735L12.8208 23.9723L12.8084 23.9731ZM11.1792 23.9723L11.1974 23.9735L11.1916 23.9731L11.1792 23.9723ZM11.1454 23.97L11.1632 23.9712L11.1535 23.9706L11.1454 23.97ZM12.8465 23.9706L12.8368 23.9712L12.8546 23.97L12.8465 23.9706ZM11.1117 23.9676L11.1281 23.9687L11.1154 23.9678L11.1117 23.9676ZM12.8846 23.9678L12.8719 23.9687L12.8883 23.9676L12.8846 23.9678ZM11.0664 23.9641L11.0807 23.9652L11.0773 23.965L11.0664 23.9641ZM12.9227 23.965L12.9193 23.9652L12.9336 23.9641L12.9227 23.965ZM12.9608 23.962L12.9539 23.9625L12.9685 23.9614L12.9608 23.962ZM11.0315 23.9614L11.0461 23.9625L11.0392 23.962L11.0315 23.9614ZM10.9975 23.9586L11.0099 23.9596L11.0012 23.9589L10.9975 23.9586ZM12.9988 23.9589L12.9901 23.9596L13.0025 23.9586L12.9988 23.9589ZM10.9601 23.9555L10.9638 23.9558L10.9632 23.9557L10.9601 23.9555ZM13.0368 23.9557L13.0362 23.9558L13.0399 23.9555L13.0368 23.9557ZM13.0748 23.9524L13.0714 23.9527L13.0799 23.952L13.0748 23.9524ZM10.9201 23.952L10.9286 23.9527L10.9253 23.9524L10.9201 23.952ZM10.885 23.9488L10.8913 23.9494L10.8874 23.949L10.885 23.9488ZM13.1126 23.949L13.1087 23.9494L13.115 23.9488L13.1126 23.949ZM10.125 23.8541C4.3913 22.9529 0 17.9852 0 12C0 5.37703 5.37703 0 12 0C18.623 0 24 5.37703 24 12C24 17.9852 19.6087 22.9529 13.875 23.8541V15.4687H16.6711L17.2031 12H13.875V9.74901C13.875 8.80003 14.3399 7.875 15.8306 7.875H17.3438V4.92187C17.3438 4.92187 15.9705 4.6875 14.6576 4.6875C11.9165 4.6875 10.125 6.34875 10.125 9.35625V12H7.07812V15.4687H10.125V23.8541Z"></path>
  </symbol>

  <symbol xmlns="http://www.w3.org/2000/svg" viewBox="0 0 24 24" id="youtube">
    <path fill-rule="evenodd" clip-rule="evenodd" d="M12 0C18.623 0 24 5.37703 24 12C24 18.623 18.623 24 12 24C5.37703 24 0 18.623 0 12C0 5.37703 5.37703 0 12 0ZM19.1866 8.38959C19.0141 7.74417 18.5059 7.236 17.8605 7.0635C16.6906 6.75 12 6.75 12 6.75C12 6.75 7.30936 6.75 6.13945 7.0635C5.49422 7.236 4.98586 7.74417 4.81336 8.38959C4.5 9.55936 4.5 12.0001 4.5 12.0001C4.5 12.0001 4.5 14.4407 4.81336 15.6104C4.98586 16.2558 5.49422 16.7642 6.13945 16.9366C7.30936 17.25 12 17.25 12 17.25C12 17.25 16.6906 17.25 17.8605 16.9366C18.5059 16.7642 19.0141 16.2558 19.1866 15.6104C19.5 14.4407 19.5 12.0001 19.5 12.0001C19.5 12.0001 19.5 9.55936 19.1866 8.38959ZM10.5 14.2501V9.75005L14.397 12.0001L10.5 14.2501Z"></path>
  </symbol>

  <symbol xmlns="http://www.w3.org/2000/svg" viewBox="0 0 24 24" id="instagram">
    <path fill-rule="evenodd" clip-rule="evenodd" d="M12 0C18.623 0 24 5.37703 24 12C24 18.623 18.623 24 12 24C5.37703 24 0 18.623 0 12C0 5.37703 5.37703 0 12 0ZM12 4.5C9.96314 4.5 9.70772 4.50863 8.90775 4.54514C8.10947 4.58156 7.56427 4.70836 7.08717 4.89375C6.594 5.08542 6.17573 5.34188 5.75878 5.75883C5.34183 6.17578 5.08538 6.59405 4.8937 7.08722C4.70831 7.56427 4.58156 8.10947 4.54509 8.90775C4.50863 9.70772 4.5 9.96314 4.5 12C4.5 14.0369 4.50863 14.2923 4.54509 15.0922C4.58156 15.8905 4.70831 16.4357 4.8937 16.9128C5.08538 17.406 5.34183 17.8242 5.75878 18.2412C6.17573 18.6582 6.594 18.9146 7.08717 19.1063C7.56427 19.2916 8.10947 19.4184 8.90775 19.4549C9.70772 19.4914 9.96314 19.5 12 19.5C14.0369 19.5 14.2923 19.4914 15.0922 19.4549C15.8905 19.4184 16.4357 19.2916 16.9128 19.1063C17.406 18.9146 17.8242 18.6582 18.2412 18.2412C18.6582 17.8242 18.9146 17.406 19.1063 16.9128C19.2916 16.4357 19.4184 15.8905 19.4549 15.0922C19.4914 14.2923 19.5 14.0369 19.5 12C19.5 9.96314 19.4914 9.70772 19.4549 8.90775C19.4184 8.10947 19.2916 7.56427 19.1063 7.08722C18.9146 6.59405 18.6582 6.17578 18.2412 5.75883C17.8242 5.34188 17.406 5.08542 16.9128 4.89375C16.4357 4.70836 15.8905 4.58156 15.0922 4.54514C14.2923 4.50863 14.0369 4.5 12 4.5ZM12 5.85136C14.0026 5.85136 14.2398 5.859 15.0307 5.89509C15.7619 5.92847 16.159 6.05062 16.4233 6.15333C16.7734 6.28936 17.0232 6.45192 17.2856 6.71438C17.5481 6.97678 17.7106 7.22667 17.8467 7.57673C17.9494 7.84102 18.0716 8.23809 18.1049 8.96934C18.141 9.76022 18.1486 9.99741 18.1486 12C18.1486 14.0026 18.141 14.2398 18.1049 15.0307C18.0716 15.7619 17.9494 16.159 17.8467 16.4233C17.7106 16.7734 17.5481 17.0232 17.2856 17.2856C17.0232 17.5481 16.7734 17.7106 16.4233 17.8467C16.159 17.9494 15.7619 18.0716 15.0307 18.1049C14.2399 18.141 14.0027 18.1486 12 18.1486C9.99727 18.1486 9.76013 18.141 8.96934 18.1049C8.23809 18.0716 7.84102 17.9494 7.57673 17.8467C7.22662 17.7106 6.97678 17.5481 6.71433 17.2856C6.45187 17.0232 6.28936 16.7734 6.15333 16.4233C6.05062 16.159 5.92842 15.7619 5.89505 15.0307C5.85895 14.2398 5.85136 14.0026 5.85136 12C5.85136 9.99741 5.85895 9.76022 5.89505 8.96934C5.92842 8.23809 6.05062 7.84102 6.15333 7.57673C6.28936 7.22667 6.45187 6.97678 6.71433 6.71438C6.97678 6.45192 7.22662 6.28936 7.57673 6.15333C7.84102 6.05062 8.23809 5.92847 8.96934 5.89509C9.76022 5.859 9.99741 5.85136 12 5.85136ZM12 8.14866C9.87295 8.14866 8.14866 9.87295 8.14866 12C8.14866 14.127 9.87295 15.8513 12 15.8513C14.127 15.8513 15.8513 14.127 15.8513 12C15.8513 9.87295 14.127 8.14866 12 8.14866ZM12 14.5C10.6193 14.5 9.50002 13.3807 9.50002 12C9.50002 10.6193 10.6193 9.50002 12 9.50002C13.3807 9.50002 14.5 10.6193 14.5 12C14.5 13.3807 13.3807 14.5 12 14.5ZM16.9035 7.9965C16.9035 8.49356 16.5006 8.89645 16.0035 8.89645C15.5065 8.89645 15.1035 8.49356 15.1035 7.9965C15.1035 7.49944 15.5065 7.0965 16.0035 7.0965C16.5006 7.0965 16.9035 7.49944 16.9035 7.9965Z"></path>
  </symbol>

  <symbol xmlns="http://www.w3.org/2000/svg" viewBox="0 0 24 24" id="telegram">
    <path d="M12 0C5.37097 0 0 5.37097 0 12C0 18.629 5.37097 24 12 24C18.629 24 24 18.629 24 12C24 5.37097 18.629 0 12 0ZM17.8935 8.22097L15.9242 17.5016C15.779 18.1597 15.3871 18.3194 14.8403 18.0097L11.8403 15.7984L10.3935 17.1919C10.2339 17.3516 10.0984 17.4871 9.78871 17.4871L10.0016 14.4339L15.5613 9.41129C15.8032 9.19839 15.5081 9.07742 15.1887 9.29032L8.31774 13.6161L5.35645 12.6919C4.7129 12.4887 4.69839 12.0484 5.49194 11.7387L17.0613 7.27742C17.5984 7.08387 18.0677 7.40806 17.8935 8.22097Z"></path>
  </symbol>

  <symbol xmlns="http://www.w3.org/2000/svg" viewBox="0 0 20 20" id="personal">
    <path d="M2.5 3H17.5C18.2875 3 19 3.73889 19 4.55556V15.4444C19 16.2611 18.2875 17 17.5 17H2.5C1.7125 17 1 16.2611 1 15.4444V4.55556C1 3.73889 1.7125 3 2.5 3ZM11.5 5.33333V6.11111H17.5V5.33333H11.5ZM11.5 6.88889V7.66667H17.125H17.5V6.88889H11.5ZM11.5 8.44444V9.22222H16.75V8.44444H11.5ZM7 11.4856C5.5 11.4856 2.5 12.3333 2.5 13.8889V14.6667H11.5V13.8889C11.5 12.3333 8.5 11.4856 7 11.4856ZM7 5.33333C6.40326 5.33333 5.83097 5.57917 5.40901 6.01675C4.98705 6.45434 4.75 7.04783 4.75 7.66667C4.75 8.28551 4.98705 8.879 5.40901 9.31658C5.83097 9.75417 6.40326 10 7 10C7.59674 10 8.16903 9.75417 8.59099 9.31658C9.01295 8.879 9.25 8.28551 9.25 7.66667C9.25 7.04783 9.01295 6.45434 8.59099 6.01675C8.16903 5.57917 7.59674 5.33333 7 5.33333Z"></path>
  </symbol>

  <symbol xmlns="http://www.w3.org/2000/svg" viewBox="0 0 20 20" id="authorization">
    <path d="M9.16667 8.25V10H7.5V11.75H5.83333V10H4.83333C4.5 11.05 3.58333 11.75 2.5 11.75C1.08333 11.75 0 10.6125 0 9.125C0 7.6375 1.08333 6.5 2.5 6.5C3.58333 6.5 4.5 7.2 4.83333 8.25H9.16667ZM2.5 8.25C2 8.25 1.66667 8.6 1.66667 9.125C1.66667 9.65 2 10 2.5 10C3 10 3.33333 9.65 3.33333 9.125C3.33333 8.6 3 8.25 2.5 8.25ZM13.3333 11.75C15.5833 11.75 20 12.8875 20 15.25V17H6.66667V15.25C6.66667 12.8875 11.0833 11.75 13.3333 11.75ZM13.3333 10C11.5 10 10 8.425 10 6.5C10 4.575 11.5 3 13.3333 3C15.1667 3 16.6667 4.575 16.6667 6.5C16.6667 8.425 15.1667 10 13.3333 10Z"></path>
  </symbol>

  <symbol xmlns="http://www.w3.org/2000/svg" viewBox="0 0 20 20" id="pay">
    <path d="M9.16667 7.11765C9.16667 8.93765 7.675 10.4118 5.83333 10.4118C3.99167 10.4118 2.5 8.93765 2.5 7.11765C2.5 5.29765 3.99167 3.82353 5.83333 3.82353C7.675 3.82353 9.16667 5.29765 9.16667 7.11765ZM9.16667 12.6518V17H0V15.3529C0 13.5329 2.60833 12.0588 5.83333 12.0588C7.08333 12.0588 8.225 12.2812 9.16667 12.6518ZM20 17H10.8333V3H20V17ZM13.3333 10C13.3333 8.86353 14.2667 7.94118 15.4167 7.94118C16.5667 7.94118 17.5 8.86353 17.5 10C17.5 11.1365 16.5667 12.0588 15.4167 12.0588C14.2667 12.0588 13.3333 11.1365 13.3333 10ZM18.3333 6.29412C17.4167 6.29412 16.6667 5.56118 16.6667 4.64706H14.1667C14.1667 5.56118 13.425 6.29412 12.5 6.29412V13.7059C13.425 13.7059 14.1667 14.4471 14.1667 15.3529H16.6667C16.6667 14.4471 17.4167 13.7059 18.3333 13.7059V6.29412Z"></path>
  </symbol>

  <symbol xmlns="http://www.w3.org/2000/svg" viewBox="0 0 12 8" id="select-arrow">
    <path d="M5.24742 7.13991L0.451192 1.6585C-0.114569 1.01192 0.344609 0 1.20377 0H10.7962C11.6554 0 12.1146 1.01192 11.5488 1.6585L6.75258 7.13991C6.35417 7.59524 5.64583 7.59524 5.24742 7.13991Z"></path>
  </symbol>

</svg>