<svg width="166" height="149" viewBox="0 0 166 149" fill="none" xmlns="http://www.w3.org/2000/svg">
<path d="M164.544 56.9806C164.484 56.9806 164.426 56.9624 164.378 56.9284L83.836 0.842176C83.5909 0.67229 83.2996 0.5815 83.0014 0.582008C82.7031 0.582517 82.4122 0.674299 82.1677 0.84502L2.20611 56.9279C2.14286 56.9722 2.06459 56.9896 1.9885 56.9763C1.91241 56.9629 1.84473 56.9199 1.80037 56.8567C1.75601 56.7934 1.73859 56.7151 1.75194 56.6391C1.7653 56.563 1.80833 56.4953 1.87158 56.451L81.8332 0.368122C82.1756 0.129149 82.5829 0.00068887 83.0004 2.76279e-06C83.418 -0.000683345 83.8257 0.126436 84.1688 0.364283L164.711 56.4504C164.761 56.4858 164.8 56.5366 164.82 56.5953C164.84 56.654 164.841 56.7175 164.822 56.7767C164.803 56.8358 164.766 56.8875 164.716 56.9242C164.666 56.9609 164.606 56.9806 164.544 56.9806L164.544 56.9806Z" fill="#3F3D56"/>
<path d="M6.77515 58.9687L83.0804 2.42249L159.965 62.9922L87.012 106.235L47.405 97.2083L6.77515 58.9687Z" fill="#E6E6E6"/>
<path d="M50.7477 132.945H13.051C12.8196 132.945 12.5903 132.9 12.3764 132.812C12.1624 132.723 11.968 132.594 11.8042 132.43C11.6405 132.267 11.5105 132.072 11.4219 131.858C11.3332 131.645 11.2876 131.415 11.2876 131.184C11.2876 130.953 11.3332 130.723 11.4219 130.51C11.5105 130.296 11.6405 130.102 11.8042 129.938C11.968 129.774 12.1624 129.645 12.3764 129.556C12.5903 129.468 12.8196 129.423 13.051 129.423H50.7477C50.9791 129.423 51.2084 129.468 51.4223 129.556C51.6363 129.645 51.8307 129.774 51.9945 129.938C52.1582 130.102 52.2882 130.296 52.3768 130.51C52.4655 130.723 52.5111 130.953 52.5111 131.184C52.5111 131.415 52.4655 131.645 52.3768 131.858C52.2882 132.072 52.1582 132.267 51.9945 132.43C51.8307 132.594 51.6363 132.723 51.4223 132.812C51.2084 132.9 50.9791 132.945 50.7477 132.945V132.945Z" fill="#505FB6"/>
<path d="M26.5757 125.374H13.051C12.8196 125.374 12.5903 125.329 12.3764 125.24C12.1624 125.152 11.968 125.022 11.8042 124.859C11.6405 124.695 11.5105 124.501 11.4219 124.287C11.3332 124.073 11.2876 123.844 11.2876 123.613C11.2876 123.381 11.3332 123.152 11.4219 122.938C11.5105 122.725 11.6405 122.53 11.8042 122.367C11.968 122.203 12.1624 122.074 12.3764 121.985C12.5903 121.897 12.8196 121.851 13.051 121.852H26.5757C26.8072 121.851 27.0365 121.897 27.2504 121.985C27.4643 122.074 27.6588 122.203 27.8225 122.367C27.9863 122.53 28.1163 122.725 28.2049 122.938C28.2935 123.152 28.3392 123.381 28.3392 123.613C28.3392 123.844 28.2935 124.073 28.2049 124.287C28.1163 124.501 27.9863 124.695 27.8225 124.859C27.6588 125.022 27.4643 125.152 27.2504 125.24C27.0365 125.329 26.8072 125.374 26.5757 125.374Z" fill="#505FB6"/>
<path d="M84.1534 90.4642C83.8669 90.4645 83.5831 90.4089 83.3178 90.3006L36.2581 70.7759V9.66047C36.2587 9.12005 36.4737 8.60194 36.8558 8.2198C37.238 7.83766 37.7562 7.6227 38.2967 7.62207H128.577C129.118 7.6227 129.636 7.83766 130.018 8.2198C130.4 8.60194 130.615 9.12005 130.616 9.66047V70.8186L130.527 70.8564L85.0143 90.291C84.7417 90.4055 84.449 90.4644 84.1534 90.4642Z" fill="white"/>
<path d="M84.1533 90.6097C83.8478 90.61 83.5451 90.5508 83.2622 90.4353L36.1123 70.8732V9.66047C36.113 9.08144 36.3433 8.52631 36.7528 8.11688C37.1622 7.70744 37.7174 7.47713 38.2965 7.47647H128.577C129.156 7.47713 129.711 7.70744 130.121 8.11688C130.53 8.52631 130.761 9.08144 130.761 9.66047V70.9147L85.0713 90.4248C84.7807 90.5471 84.4686 90.6099 84.1533 90.6097V90.6097ZM36.6947 70.4841L83.4844 89.8969C83.9208 90.0739 84.4095 90.071 84.8438 89.8888L130.179 70.5302V9.66047C130.178 9.23586 130.01 8.82878 129.709 8.52853C129.409 8.22828 129.002 8.05938 128.577 8.05887H38.2965C37.8719 8.05938 37.4647 8.22828 37.1645 8.52853C36.8642 8.82878 36.6953 9.23586 36.6948 9.66047L36.6947 70.4841Z" fill="#3F3D56"/>
<path d="M163.961 56.3982H163.903L130.47 70.6729L84.727 90.2037C84.5483 90.2789 84.3565 90.3181 84.1626 90.3191C83.9687 90.3201 83.7765 90.2829 83.597 90.2095L36.4035 70.6321L2.14923 56.4215L2.0969 56.3982H2.0386C1.49811 56.3988 0.979933 56.6138 0.597752 56.9959C0.215571 57.3781 0.000599712 57.8962 0 58.4366V146.962C0.000600481 147.502 0.215571 148.02 0.597752 148.402C0.979933 148.784 1.49811 148.999 2.0386 149H163.961C164.502 148.999 165.02 148.784 165.402 148.402C165.784 148.02 165.999 147.502 166 146.962V58.4366C165.999 57.8962 165.784 57.3781 165.402 56.9959C165.02 56.6138 164.502 56.3988 163.961 56.3982V56.3982ZM165.418 146.962C165.417 147.348 165.264 147.718 164.991 147.991C164.718 148.264 164.348 148.417 163.961 148.418H2.0386C1.65245 148.417 1.28217 148.264 1.00912 147.991C0.736076 147.718 0.58261 147.348 0.582456 146.962V58.4366C0.582984 58.0601 0.729049 57.6984 0.990111 57.427C1.25117 57.1557 1.60702 56.9957 1.98328 56.9806L36.4035 71.2611L83.3728 90.7482C83.8813 90.9551 84.451 90.952 84.9571 90.7395L130.47 71.3048L164.02 56.9806C164.395 56.9968 164.75 57.1572 165.011 57.4284C165.271 57.6996 165.417 58.0607 165.418 58.4366V146.962Z" fill="#3F3D56"/>
<path d="M83.6829 73.1342C81.9456 73.1374 80.2544 72.5757 78.8643 71.5337L78.7781 71.469L60.6314 57.5765C59.791 56.9327 59.0856 56.1296 58.5556 55.2132C58.0256 54.2967 57.6813 53.2849 57.5424 52.2354C57.4034 51.1859 57.4726 50.1194 57.7459 49.0966C58.0192 48.0738 58.4913 47.1149 59.1352 46.2746C59.7791 45.4342 60.5823 44.729 61.4988 44.199C62.4153 43.669 63.4273 43.3247 64.4769 43.1858C65.5264 43.0469 66.5931 43.116 67.616 43.3893C68.6388 43.6626 69.5978 44.1346 70.4382 44.7785L82.1923 53.7905L109.969 17.569C110.613 16.7289 111.417 16.0239 112.333 15.4942C113.25 14.9646 114.262 14.6207 115.312 14.4821C116.361 14.3436 117.428 14.4131 118.451 14.6868C119.474 14.9604 120.432 15.4329 121.273 16.077L121.1 16.3115L121.277 16.0805C122.972 17.3829 124.081 19.3043 124.36 21.4232C124.64 23.5421 124.068 25.6854 122.769 27.383L90.097 69.9881C89.3414 70.9699 88.3697 71.7644 87.2574 72.31C86.145 72.8556 84.9219 73.1376 83.6829 73.1342V73.1342Z" fill="#505FB6"/>
</svg>
