<svg width="215" height="134" viewBox="0 0 215 134" fill="none" xmlns="http://www.w3.org/2000/svg">
<path d="M201.033 120.187L206.109 118.586C206.742 115.878 206.7 113.056 205.987 110.368C203.948 114.876 197.965 115.98 194.556 119.579C193.502 120.709 192.717 122.061 192.259 123.534C191.801 125.007 191.683 126.564 191.913 128.089L190.845 131.691C193.339 131.479 195.757 130.732 197.933 129.501C200.109 128.27 201.99 126.585 203.448 124.562C204.255 123.419 204.913 122.179 205.408 120.873C203.244 120.657 201.033 120.187 201.033 120.187Z" fill="#F2F2F2"/>
<path d="M195.61 113.527L199.435 109.843C198.786 107.138 197.483 104.632 195.639 102.541C195.836 107.481 190.977 111.122 189.54 115.854C189.103 117.334 189.006 118.892 189.258 120.413C189.509 121.935 190.101 123.38 190.99 124.643L191.65 128.341C193.787 127.045 195.617 125.304 197.012 123.238C198.408 121.172 199.336 118.829 199.733 116.372C199.942 114.991 199.976 113.589 199.833 112.2C197.799 112.967 195.61 113.527 195.61 113.527Z" fill="#F2F2F2"/>
<path d="M143.61 13.0183H0.556962C0.408171 13.0152 0.266539 12.9542 0.162424 12.8485C0.058309 12.7427 0 12.6006 0 12.4526C0 12.3047 0.058309 12.1626 0.162424 12.0568C0.266539 11.9511 0.408171 11.8901 0.556962 11.887H143.61C143.759 11.8901 143.901 11.9511 144.005 12.0568C144.109 12.1626 144.167 12.3047 144.167 12.4526C144.167 12.6006 144.109 12.7427 144.005 12.8485C143.901 12.9542 143.759 13.0152 143.61 13.0183Z" fill="#3F3D56"/>
<path d="M10.2949 8.99891C12.1361 8.99891 13.6288 7.48167 13.6288 5.61006C13.6288 3.73844 12.1361 2.2212 10.2949 2.2212C8.45359 2.2212 6.96094 3.73844 6.96094 5.61006C6.96094 7.48167 8.45359 8.99891 10.2949 8.99891Z" fill="#3F3D56"/>
<path d="M21.812 8.99891C23.6532 8.99891 25.1459 7.48167 25.1459 5.61006C25.1459 3.73844 23.6532 2.2212 21.812 2.2212C19.9707 2.2212 18.478 3.73844 18.478 5.61006C18.478 7.48167 19.9707 8.99891 21.812 8.99891Z" fill="#3F3D56"/>
<path d="M33.3293 8.99891C35.1706 8.99891 36.6632 7.48167 36.6632 5.61006C36.6632 3.73844 35.1706 2.2212 33.3293 2.2212C31.488 2.2212 29.9954 3.73844 29.9954 5.61006C29.9954 7.48167 31.488 8.99891 33.3293 8.99891Z" fill="#3F3D56"/>
<path d="M136.676 3.06118H128.495C128.333 3.06439 128.178 3.13069 128.065 3.24586C127.951 3.36102 127.887 3.51586 127.887 3.67712C127.887 3.83839 127.951 3.99323 128.065 4.10839C128.178 4.22355 128.333 4.28986 128.495 4.29307H136.676C136.838 4.28986 136.993 4.22355 137.106 4.10839C137.22 3.99323 137.283 3.83839 137.283 3.67712C137.283 3.51586 137.22 3.36102 137.106 3.24586C136.993 3.13069 136.838 3.06439 136.676 3.06118Z" fill="#3F3D56"/>
<path d="M136.676 5.3732H128.495C128.333 5.37639 128.178 5.44269 128.065 5.55786C127.951 5.67302 127.887 5.82787 127.887 5.98915C127.887 6.15043 127.951 6.30528 128.065 6.42044C128.178 6.53561 128.333 6.6019 128.495 6.60509H136.676C136.838 6.6019 136.993 6.53561 137.106 6.42044C137.22 6.30528 137.283 6.15043 137.283 5.98915C137.283 5.82787 137.22 5.67302 137.106 5.55786C136.993 5.44269 136.838 5.37639 136.676 5.3732Z" fill="#3F3D56"/>
<path d="M136.676 7.68226H128.495C128.333 7.68545 128.178 7.75174 128.065 7.86691C127.951 7.98207 127.887 8.13692 127.887 8.2982C127.887 8.45948 127.951 8.61433 128.065 8.7295C128.178 8.84466 128.333 8.91096 128.495 8.91415H136.676C136.838 8.91096 136.993 8.84466 137.106 8.7295C137.22 8.61433 137.283 8.45948 137.283 8.2982C137.283 8.13692 137.22 7.98207 137.106 7.86691C136.993 7.75174 136.838 7.68545 136.676 7.68226Z" fill="#3F3D56"/>
<path d="M11.0827 36.0002C13.3591 36.0002 15.2044 34.1653 15.2044 31.9019C15.2044 29.6384 13.3591 27.8035 11.0827 27.8035C8.8063 27.8035 6.96094 29.6384 6.96094 31.9019C6.96094 34.1653 8.8063 36.0002 11.0827 36.0002Z" fill="#E6E7E8"/>
<path d="M116.043 40.977H8.1883C7.86279 40.977 7.5506 40.8484 7.32042 40.6196C7.09024 40.3907 6.96094 40.0803 6.96094 39.7566C6.96094 39.4329 7.09024 39.1225 7.32042 38.8937C7.5506 38.6648 7.86279 38.5362 8.1883 38.5362H116.043C116.369 38.5362 116.681 38.6648 116.911 38.8937C117.141 39.1225 117.271 39.4329 117.271 39.7566C117.271 40.0803 117.141 40.3907 116.911 40.6196C116.681 40.8484 116.369 40.977 116.043 40.977Z" fill="#E6E7E8"/>
<path d="M87.7565 45.7994H8.18837C7.86284 45.7994 7.55064 45.6709 7.32045 45.442C7.09026 45.2131 6.96094 44.9027 6.96094 44.579C6.96094 44.2553 7.09026 43.9449 7.32045 43.716C7.55064 43.4871 7.86284 43.3585 8.18837 43.3585H87.7565C88.0821 43.3585 88.3943 43.4871 88.6245 43.716C88.8547 43.9449 88.984 44.2553 88.984 44.579C88.984 44.9027 88.8547 45.2131 88.6245 45.442C88.3943 45.6709 88.0821 45.7994 87.7565 45.7994Z" fill="#E6E7E8"/>
<path d="M11.0827 99.9687C13.3591 99.9687 15.2044 98.1338 15.2044 95.8704C15.2044 93.6069 13.3591 91.772 11.0827 91.772C8.8063 91.772 6.96094 93.6069 6.96094 95.8704C6.96094 98.1338 8.8063 99.9687 11.0827 99.9687Z" fill="#E6E7E8"/>
<path d="M116.043 104.945H8.18808C8.02673 104.946 7.86691 104.914 7.71778 104.853C7.56864 104.792 7.4331 104.702 7.31892 104.589C7.20474 104.475 7.11416 104.341 7.05236 104.193C6.99055 104.044 6.95874 103.886 6.95874 103.725C6.95874 103.565 6.99055 103.406 7.05236 103.258C7.11416 103.109 7.20474 102.975 7.31892 102.861C7.4331 102.748 7.56864 102.658 7.71778 102.597C7.86691 102.536 8.02673 102.504 8.18808 102.505H116.043C116.385 102.524 116.708 102.669 116.947 102.912C117.187 103.155 117.327 103.479 117.339 103.819C117.329 103.978 117.287 104.133 117.216 104.276C117.146 104.419 117.047 104.546 116.927 104.651C116.806 104.755 116.666 104.835 116.515 104.886C116.363 104.936 116.203 104.957 116.043 104.945Z" fill="#E6E7E8"/>
<path d="M87.7565 109.768H8.18837C7.86284 109.768 7.55064 109.639 7.32045 109.41C7.09026 109.181 6.96094 108.871 6.96094 108.547C6.96094 108.224 7.09026 107.913 7.32045 107.684C7.55064 107.455 7.86284 107.327 8.18837 107.327H87.7565C88.0821 107.327 88.3943 107.455 88.6245 107.684C88.8547 107.913 88.984 108.224 88.984 108.547C88.984 108.871 88.8547 109.181 88.6245 109.41C88.3943 109.639 88.0821 109.768 87.7565 109.768Z" fill="#E6E7E8"/>
<path d="M11.0827 65.5732C13.3591 65.5732 15.2044 63.7383 15.2044 61.4749C15.2044 59.2115 13.3591 57.3766 11.0827 57.3766C8.8063 57.3766 6.96094 59.2115 6.96094 61.4749C6.96094 63.7383 8.8063 65.5732 11.0827 65.5732Z" fill="#E6E7E8"/>
<path d="M116.043 70.55H8.1883C7.86279 70.55 7.5506 70.4214 7.32042 70.1926C7.09024 69.9637 6.96094 69.6533 6.96094 69.3296C6.96094 69.006 7.09024 68.6955 7.32042 68.4667C7.5506 68.2378 7.86279 68.1092 8.1883 68.1092H116.043C116.369 68.1092 116.681 68.2378 116.911 68.4667C117.141 68.6955 117.271 69.006 117.271 69.3296C117.271 69.6533 117.141 69.9637 116.911 70.1926C116.681 70.4214 116.369 70.55 116.043 70.55Z" fill="#E6E7E8"/>
<path d="M101.024 75.3724H8.18837C7.86284 75.3724 7.55064 75.2439 7.32045 75.015C7.09026 74.7861 6.96094 74.4757 6.96094 74.152C6.96094 73.8283 7.09026 73.5179 7.32045 73.289C7.55064 73.0601 7.86284 72.9315 8.18837 72.9315H101.024C101.349 72.9315 101.662 73.0601 101.892 73.289C102.122 73.5179 102.251 73.8283 102.251 74.152C102.251 74.4757 102.122 74.7861 101.892 75.015C101.662 75.2439 101.349 75.3724 101.024 75.3724Z" fill="#E6E7E8"/>
<path d="M94.7228 80.1948H8.18837C7.86284 80.1948 7.55064 80.0663 7.32045 79.8374C7.09026 79.6085 6.96094 79.2981 6.96094 78.9744C6.96094 78.6507 7.09026 78.3403 7.32045 78.1114C7.55064 77.8825 7.86284 77.7539 8.18837 77.7539H94.7228C95.0484 77.7539 95.3606 77.8825 95.5908 78.1114C95.821 78.3403 95.9503 78.6507 95.9503 78.9744C95.9503 79.2981 95.821 79.6085 95.5908 79.8374C95.3606 80.0663 95.0484 80.1948 94.7228 80.1948Z" fill="#E6E7E8"/>
<path d="M101.88 134C118.738 134 132.404 120.412 132.404 103.65C132.404 86.8878 118.738 73.2995 101.88 73.2995C85.0227 73.2995 71.3568 86.8878 71.3568 103.65C71.3568 120.412 85.0227 134 101.88 134Z" fill="#505FB6"/>
<path d="M101.838 114.239C104.247 114.239 106.199 112.298 106.199 109.903C106.199 107.509 104.247 105.568 101.838 105.568C99.4302 105.568 97.4779 107.509 97.4779 109.903C97.4779 112.298 99.4302 114.239 101.838 114.239Z" fill="#3F3D56"/>
<path d="M96.4712 112.053C97.5827 112.053 98.4837 111.157 98.4837 110.052C98.4837 108.947 97.5827 108.051 96.4712 108.051C95.3597 108.051 94.4586 108.947 94.4586 110.052C94.4586 111.157 95.3597 112.053 96.4712 112.053Z" fill="#505FB6"/>
<path d="M109.933 119.555H93.828C92.2334 119.553 90.7045 118.922 89.5769 117.801C88.4493 116.68 87.8149 115.16 87.8131 113.574V106.232C87.8149 104.647 88.4492 103.126 89.5768 102.005C90.7045 100.884 92.2333 100.253 93.828 100.251H109.933C111.528 100.253 113.056 100.884 114.184 102.005C115.312 103.126 115.946 104.647 115.948 106.232V113.574C115.946 115.16 115.312 116.68 114.184 117.801C113.056 118.922 111.528 119.553 109.933 119.555ZM93.828 100.878C92.4003 100.879 91.0315 101.444 90.022 102.448C89.0124 103.452 88.4445 104.813 88.4429 106.232V113.574C88.4445 114.994 89.0124 116.355 90.022 117.359C91.0316 118.362 92.4003 118.927 93.828 118.929H109.933C111.361 118.927 112.729 118.362 113.739 117.359C114.748 116.355 115.316 114.994 115.318 113.574V106.232C115.316 104.813 114.748 103.452 113.739 102.448C112.729 101.444 111.361 100.879 109.933 100.878L93.828 100.878Z" fill="white"/>
<path d="M92.8741 115.569H107.169C107.911 115.569 108.645 115.424 109.331 115.142C110.016 114.859 110.639 114.446 111.164 113.924C111.689 113.402 112.105 112.783 112.389 112.101C112.673 111.42 112.819 110.689 112.819 109.951V103.807C112.818 103.126 112.691 102.45 112.446 101.814C113.143 102.336 113.709 103.012 114.099 103.789C114.489 104.566 114.692 105.422 114.692 106.29V112.434C114.692 113.172 114.545 113.903 114.261 114.584C113.978 115.266 113.561 115.885 113.037 116.407C112.512 116.928 111.889 117.342 111.204 117.625C110.518 117.907 109.784 118.052 109.042 118.052H94.7469C93.6013 118.052 92.483 117.704 91.5404 117.057C90.5978 116.41 89.8756 115.492 89.4696 114.427C90.4481 115.168 91.6441 115.569 92.8741 115.569Z" fill="#3F3D56"/>
<path d="M157.855 128.076L154.343 128.076L152.672 114.604L157.856 114.605L157.855 128.076Z" fill="#A0616A"/>
<path d="M157.979 131.72L147.177 131.719V131.584C147.178 130.475 147.621 129.412 148.409 128.628C149.197 127.844 150.267 127.403 151.382 127.403H151.382L153.355 125.915L157.036 127.403L157.979 127.403L157.979 131.72Z" fill="#2F2E41"/>
<path d="M182.71 128.076L186.222 128.076L187.893 114.604L182.709 114.605L182.71 128.076Z" fill="#A0616A"/>
<path d="M182.586 131.72L193.388 131.719V131.584C193.388 130.475 192.945 129.412 192.156 128.628C191.368 127.844 190.298 127.403 189.183 127.403H189.183L187.21 125.915L183.529 127.403L182.586 127.403L182.586 131.72Z" fill="#2F2E41"/>
<path d="M152.517 104.705C152.569 103.936 152.982 99.6846 152.982 99.6846L153.97 90.6689L155.711 66.7704L155.825 65.2059L164.946 63.4647L171.18 60.493L178.59 62.8483L184.36 64.9996C184.36 64.9996 184.37 65.9206 184.414 67.0332C184.474 68.4895 184.577 70.275 184.824 70.7391C185.237 71.5594 185.133 75.9629 185.133 75.9629C185.133 75.9629 185.543 84.9221 186.059 85.9045C186.575 86.8868 186.679 88.9326 186.524 89.3427C186.368 89.7529 187.04 100.512 187.04 100.512C187.04 100.512 188.764 119.552 187.682 122.423C186.6 125.294 182.512 123.414 182.512 123.414C182.512 123.414 182.71 122.647 181.524 122.286C180.339 121.925 176.728 94.9275 176.728 94.9275C176.728 94.9275 176.056 89.3918 175.438 87.8053C174.821 86.2188 174.253 81.7613 174.253 81.7613C174.253 81.7613 170.439 74.3837 170.39 72.7431C170.39 72.7431 169.891 71.2082 169.419 72.8979C168.947 74.5876 167.557 78.6349 167.557 78.6349L166.201 83.6057L164.605 91.0324L163.573 97.2852C163.573 97.2852 162.027 105.584 161.78 105.942C161.533 106.301 161.78 113.882 161.78 113.882C161.78 113.882 160.584 120.339 158.895 121.466C157.205 122.593 152.729 121.484 152.729 121.484C152.729 121.484 152.465 105.473 152.517 104.705Z" fill="#2F2E41"/>
<path d="M156.409 43.4095L158.437 49.4831L155.935 52.4448L157.036 53.5722L156.224 55.1659L154.104 71.8713L165.723 76.2525L169.636 71.375L172.721 76.2525L186.165 72.9862L182.736 51.6836V50.2909L181.768 47.6017V41.9088L184.324 24.9631L176.695 22.3058L173.047 19.4349L171.866 23.4724L166.84 22.5835L166.709 19.5501L162.863 23.163L159.625 24.0814L155.747 24.9631L155.253 26.191L156.241 25.9456L156.08 41.9214L156.409 43.4095Z" fill="#2F2E41"/>
<path d="M152.936 65.6318L154.887 46.8513L155.402 39.1218L149.941 38.1399C149.941 38.1399 150.157 43.6666 149.442 46.7849C148.735 49.862 149.348 65.2195 149.391 65.6301C148.99 65.9867 148.708 66.4561 148.581 66.976C148.454 67.4959 148.488 68.0419 148.68 68.5417C148.872 69.0416 149.212 69.4718 149.655 69.7754C150.098 70.0789 150.623 70.2416 151.162 70.2419C151.7 70.2421 152.225 70.0799 152.668 69.7768C153.112 69.4736 153.452 69.0438 153.645 68.5441C153.837 68.0444 153.872 67.4984 153.746 66.9784C153.619 66.4584 153.337 65.9888 152.936 65.6318Z" fill="#A0616A"/>
<path d="M147.608 50.7429L149.127 51.0548L154.339 52.128L154.628 52.187L155.243 49.7556L155.957 48.9992L157.315 41.9212L157.387 41.5528L159.439 37.1911L160.859 24.0814L155.579 25.0245C155.552 25.0515 155.527 25.081 155.502 25.1104C154.744 25.9651 154.203 27.1538 153.319 28.3498C150.441 32.2424 148.233 41.7002 148.32 46.8822C148.322 46.9657 148.236 47.0565 148.132 47.1499C147.642 47.5975 147.323 48.1992 147.227 48.8538C147.132 49.5083 147.267 50.1755 147.608 50.7429Z" fill="#2F2E41"/>
<path d="M186.888 65.6318L184.937 46.8513L184.422 39.1218L189.883 38.1399C189.883 38.1399 189.667 43.6666 190.383 46.7849C191.089 49.862 190.476 65.2194 190.433 65.6301C190.834 65.9867 191.116 66.4561 191.243 66.976C191.371 67.4959 191.336 68.0419 191.144 68.5417C190.952 69.0416 190.612 69.4718 190.169 69.7753C189.726 70.0789 189.201 70.2416 188.663 70.2418C188.124 70.2421 187.599 70.0799 187.156 69.7768C186.712 69.4736 186.372 69.0438 186.18 68.5441C185.987 68.0444 185.952 67.4984 186.079 66.9784C186.205 66.4584 186.487 65.9888 186.888 65.6318Z" fill="#A0616A"/>
<path d="M192.216 50.7429L190.697 51.0548L185.485 52.128L185.196 52.187L184.581 49.7556L183.867 48.9992L182.509 41.9212L182.437 41.5528L180.385 37.1911L180.854 24.0814L184.245 25.0245C184.273 25.0515 184.297 25.081 184.322 25.1104C185.08 25.9651 185.621 27.1538 186.505 28.3498C189.383 32.2424 191.591 41.7002 191.504 46.8822C191.502 46.9657 191.588 47.0565 191.692 47.1499C192.182 47.5975 192.501 48.1992 192.597 48.8538C192.692 49.5083 192.558 50.1755 192.216 50.7429Z" fill="#2F2E41"/>
<path d="M164.227 26.0211L166.709 19.5503L173.047 19.4348L175.15 26.0211L182.709 68.0094C182.709 68.0094 159.55 74.422 159.785 66.7138C160.032 58.6092 161.147 47.8437 161.147 47.8437L164.227 26.0211Z" fill="#505FB6"/>
<path d="M169.736 17.7403C173.859 17.7403 177.202 14.4166 177.202 10.3166C177.202 6.21666 173.859 2.89297 169.736 2.89297C165.612 2.89297 162.27 6.21666 162.27 10.3166C162.27 14.4166 165.612 17.7403 169.736 17.7403Z" fill="#A0616A"/>
<path d="M161.83 4.93119C163.045 3.61572 164.565 1.20777 169.17 0.196609C174.861 -1.05285 177.549 4.0583 176.114 4.14208C180.31 5.4055 177.615 14.0395 176.412 13.3154C176.402 13.3082 176.392 13.3005 176.382 13.2923C175.735 12.8186 175.192 12.2187 174.786 11.5292C174.381 10.8398 174.12 10.0753 174.021 9.28251L173.793 7.23938C173.761 8.90172 172.052 9.12163 170.306 8.5094C170.409 8.14494 170.606 7.81352 170.878 7.54787C171.149 7.28221 171.485 7.0915 171.853 6.99454C170.636 8.09151 169.091 8.7603 167.454 8.89793C167.54 8.48171 167.714 8.08855 167.965 7.74485C168.216 7.40116 168.539 7.11489 168.91 6.90528L168.841 6.83797C168.16 7.40962 167.377 7.85027 166.533 8.13747C165.571 8.41173 164.418 8.26336 163.758 7.51435C163.581 7.30764 163.447 7.06767 163.364 6.80858C163.507 8.12509 162.619 9.62789 161.929 9.36987C161.355 9.25898 161.02 5.80691 161.83 4.93119Z" fill="#2F2E41"/>
<path d="M215 131.719C215 131.768 214.991 131.816 214.972 131.862C214.953 131.907 214.925 131.948 214.891 131.983C214.856 132.017 214.814 132.045 214.769 132.063C214.723 132.082 214.675 132.092 214.625 132.092H126.364C126.265 132.092 126.169 132.052 126.099 131.982C126.029 131.913 125.989 131.818 125.989 131.719C125.989 131.62 126.029 131.525 126.099 131.455C126.169 131.386 126.265 131.346 126.364 131.346H214.625C214.675 131.346 214.723 131.356 214.769 131.374C214.814 131.393 214.856 131.421 214.891 131.455C214.925 131.49 214.953 131.531 214.972 131.576C214.991 131.621 215 131.67 215 131.719Z" fill="#CCCCCC"/>
<path d="M102.128 87.1936C99.1428 87.1936 96.5185 88.5375 95.0327 90.5547C96.6211 89.4053 98.5388 88.7934 100.503 88.8093C105.126 88.8093 108.888 92.0294 108.888 95.9873V99.2774H110.513V94.3717C110.513 90.4137 106.751 87.1936 102.128 87.1936Z" fill="#3F3D56"/>
<path d="M111.629 100.961H92.1316V95.2571C92.1316 90.6551 96.5049 86.911 101.88 86.911C107.256 86.911 111.629 90.6551 111.629 95.2571V100.961ZM92.7614 100.335H110.999V95.2571C110.999 91.0003 106.909 87.5372 101.88 87.5372C96.8521 87.5372 92.7614 91.0003 92.7614 95.2571V100.335Z" fill="white"/>
<path d="M106.874 98.7835H96.8869C96.4376 98.783 96.0069 98.6053 95.6892 98.2894C95.3715 97.9735 95.1929 97.5452 95.1924 97.0985V94.8285C95.1924 91.6635 98.1926 89.0887 101.88 89.0887C105.568 89.0887 108.568 91.6635 108.568 94.8285V97.0985C108.568 97.5452 108.389 97.9735 108.071 98.2894C107.754 98.6053 107.323 98.783 106.874 98.7835ZM101.88 89.7149C98.5398 89.7149 95.8222 92.0087 95.8222 94.8284V97.0984C95.8225 97.3792 95.9347 97.6483 96.1343 97.8468C96.3339 98.0453 96.6046 98.157 96.8869 98.1573H106.874C107.156 98.157 107.427 98.0453 107.626 97.8468C107.826 97.6483 107.938 97.3792 107.938 97.0984V94.8284C107.938 92.0087 105.221 89.7149 101.88 89.7149Z" fill="white"/>
</svg>
